HIERARCHY
ROOT Hips
{
	OFFSET -0.001795 -0.223333 0.028219
	CHANNELS 6 Xposition Yposition Zposition Zrotation Yrotation Xrotation 
	JOINT LeftUpLeg
	{
		OFFSET 0.069520 -0.091406 -0.006815
		CHANNELS 3 Zrotation Yrotation Xrotation
		JOINT LeftLeg
		{
			OFFSET 0.034277 -0.375199 -0.004496
			CHANNELS 3 Zrotation Yrotation Xrotation
			JOINT LeftFoot
			{
				OFFSET -0.013596 -0.397961 -0.043693
				CHANNELS 3 Zrotation Yrotation Xrotation
				JOINT LeftToe
				{
					OFFSET 0.026358 -0.055791 0.119288
					CHANNELS 3 Zrotation Yrotation Xrotation
					End Site
					{
						OFFSET 0.000000 0.000000 0.000000
					}
				}
			}
		}
	}
	JOINT RightUpLeg
	{
		OFFSET -0.067670 -0.090522 -0.004320
		CHANNELS 3 Zrotation Yrotation Xrotation
		JOINT RightLeg
		{
			OFFSET -0.038290 -0.382569 -0.008850
			CHANNELS 3 Zrotation Yrotation Xrotation
			JOINT RightFoot
			{
				OFFSET 0.015774 -0.398415 -0.042312
				CHANNELS 3 Zrotation Yrotation Xrotation
				JOINT RightToe
				{
					OFFSET -0.025372 -0.048144 0.123348
					CHANNELS 3 Zrotation Yrotation Xrotation
					End Site
					{
						OFFSET 0.000000 0.000000 0.000000
					}
				}
			}
		}
	}
	JOINT Spine
	{
		OFFSET -0.002533 0.108963 -0.026696
		CHANNELS 3 Zrotation Yrotation Xrotation
		JOINT Spine1
		{
			OFFSET 0.005487 0.135180 0.001092
			CHANNELS 3 Zrotation Yrotation Xrotation
			JOINT Spine2
			{
				OFFSET 0.001457 0.052922 0.025425
				CHANNELS 3 Zrotation Yrotation Xrotation
				JOINT Neck
				{
					OFFSET -0.002778 0.213870 -0.042857
					CHANNELS 3 Zrotation Yrotation Xrotation
					JOINT Head
					{
						OFFSET 0.005152 0.064970 0.051349
						CHANNELS 3 Zrotation Yrotation Xrotation
						End Site
						{
							OFFSET 0.000000 0.000000 0.000000
						}
					}
				}
				JOINT LeftShoulder
				{
					OFFSET 0.078845 0.121749 -0.034090
					CHANNELS 3 Zrotation Yrotation Xrotation
					JOINT LeftArm
					{
						OFFSET 0.090977 0.030469 -0.008868
						CHANNELS 3 Zrotation Yrotation Xrotation
						JOINT LeftForeArm
						{
							OFFSET 0.259612 -0.012772 -0.027456
							CHANNELS 3 Zrotation Yrotation Xrotation
							JOINT LeftHand
							{
								OFFSET 0.249234 0.008986 -0.001171
								CHANNELS 3 Zrotation Yrotation Xrotation
								End Site
								{
									OFFSET 0.000000 0.000000 0.000000
								}
							}
						}
					}
				}
				JOINT RightShoulder
				{
					OFFSET -0.081759 0.118833 -0.038615
					CHANNELS 3 Zrotation Yrotation Xrotation
					JOINT RightArm
					{
						OFFSET -0.096012 0.032551 -0.009143
						CHANNELS 3 Zrotation Yrotation Xrotation
						JOINT RightForeArm
						{
							OFFSET -0.253742 -0.013329 -0.021401
							CHANNELS 3 Zrotation Yrotation Xrotation
							JOINT RightHand
							{
								OFFSET -0.255298 0.007772 -0.005559
								CHANNELS 3 Zrotation Yrotation Xrotation
								End Site
								{
									OFFSET 0.000000 0.000000 0.000000
								}
							}
						}
					}
				}
			}
		}
	}
}
MOTION
Frames: 13
Frame Time: 0.050000
0.000000 0.960433 0.000000 -0.721753 1.758713 1.344550 4.441784 0.057954 2.852752 -3.573947 0.387260 -6.304364 -0.548691 4.364450 13.236039 0.000000 0.000000 0.000000 -1.562805 -0.270070 3.447851 1.428708 -0.303826 -5.383031 -1.392198 -7.696776 13.135838 0.000000 0.000000 0.000000 -1.565970 -0.007101 0.949827 3.573512 -0.153727 -25.413711 -1.238581 -1.411580 33.068677 1.855847 -0.451022 -15.977070 0.000000 0.000000 0.000000 0.185629 14.240401 -5.234258 -13.484963 -12.831359 -1.666910 9.200276 6.432015 0.360632 0.000000 0.000000 0.000000 -10.545070 -9.564665 -2.322917 22.006106 1.044484 -3.133833 -13.705254 -0.644427 0.404081 0.000000 0.000000 0.000000 
-0.000158 0.960433 0.001083 -0.714621 1.740049 1.337321 4.423318 0.060961 2.889564 -3.585728 0.388085 -6.349253 -0.530174 4.399137 13.258284 0.000000 0.000000 0.000000 -1.572080 -0.271230 3.467456 1.428336 -0.303904 -5.389473 -1.360631 -7.648137 13.165566 0.000000 0.000000 0.000000 -1.567851 -0.007736 0.973551 3.558948 -0.150502 -25.416473 -1.225282 -1.377327 33.075862 1.852843 -0.442550 -16.003220 0.000000 0.000000 0.000000 0.164936 14.240575 -5.237399 -13.502757 -12.840244 -1.666702 8.793878 6.628803 0.341658 0.000000 0.000000 0.000000 -10.527676 -9.602363 -2.337730 22.089011 0.939069 -3.158973 -13.427403 -0.803853 0.410408 0.000000 0.000000 0.000000 
-0.000295 0.960436 0.002083 -0.712995 1.783345 1.323787 4.414464 0.063194 2.934416 -3.595444 0.388145 -6.397929 -0.549981 4.372989 13.258065 0.000000 0.000000 0.000000 -1.560472 -0.274204 3.489970 1.395741 -0.302201 -5.394306 -1.350404 -7.633227 13.205591 0.000000 0.000000 0.000000 -1.579847 -0.008510 1.007928 3.546969 -0.146463 -25.431373 -1.218152 -1.376975 33.088008 1.890549 -0.466219 -16.002632 0.000000 0.000000 0.000000 0.132915 14.241864 -5.242265 -13.532644 -12.869714 -1.666067 8.511889 6.637537 0.322841 0.000000 0.000000 0.000000 -10.481934 -9.638459 -2.356604 22.169210 0.820074 -3.186323 -13.222572 -0.850064 0.408841 0.000000 0.000000 0.000000 
-0.000435 0.960433 0.002989 -0.707128 1.842472 1.312786 4.399511 0.063938 2.948333 -3.594834 0.387505 -6.402498 -0.567436 4.349460 13.248432 0.000000 0.000000 0.000000 -1.552445 -0.276094 3.501460 1.372363 -0.300495 -5.377066 -1.360658 -7.642803 13.199856 0.000000 0.000000 0.000000 -1.596058 -0.008784 1.027468 3.548824 -0.145219 -25.449495 -1.234429 -1.405737 33.098921 1.898268 -0.472242 -15.992355 0.000000 0.000000 0.000000 0.128287 14.235921 -5.240143 -13.555939 -12.899924 -1.665748 8.421900 6.582031 0.314789 0.000000 0.000000 0.000000 -10.459850 -9.641693 -2.361715 22.208474 0.755168 -3.200939 -13.169188 -0.825224 0.405356 0.000000 0.000000 0.000000 
-0.000586 0.960423 0.003866 -0.702075 1.872079 1.307084 4.387995 0.064625 2.957716 -3.594893 0.387205 -6.412120 -0.573444 4.342070 13.243748 0.000000 0.000000 0.000000 -1.555599 -0.275872 3.498459 1.369891 -0.299527 -5.344691 -1.359081 -7.625961 13.159907 0.000000 0.000000 0.000000 -1.605141 -0.008996 1.040855 3.548579 -0.143846 -25.467950 -1.249863 -1.421685 33.116726 1.897298 -0.470887 -16.004650 0.000000 0.000000 0.000000 0.135935 14.223222 -5.233994 -13.550294 -12.918116 -1.665032 8.388617 6.538583 0.311061 0.000000 0.000000 0.000000 -10.452122 -9.637263 -2.362561 22.200899 0.738902 -3.203035 -13.151322 -0.802622 0.402910 0.000000 0.000000 0.000000 
-0.000746 0.960417 0.004740 -0.699411 1.889093 1.307894 4.380080 0.065233 2.967045 -3.592779 0.386927 -6.424164 -0.580709 4.326002 13.224233 0.000000 0.000000 0.000000 -1.554744 -0.275590 3.493621 1.364857 -0.298725 -5.325614 -1.356971 -7.611581 13.127115 0.000000 0.000000 0.000000 -1.615006 -0.008880 1.043945 3.545799 -0.143561 -25.458626 -1.253022 -1.431868 33.107380 1.903432 -0.475218 -16.007585 0.000000 0.000000 0.000000 0.135634 14.195107 -5.222950 -13.513297 -12.911671 -1.662792 8.331803 6.516751 0.306530 0.000000 0.000000 0.000000 -10.450778 -9.623323 -2.358914 22.179731 0.720765 -3.201987 -13.130110 -0.792919 0.401321 0.000000 0.000000 0.000000 
-0.000907 0.960419 0.005598 -0.701427 1.904323 1.311953 4.373356 0.065922 2.979423 -3.592935 0.386768 -6.438891 -0.579481 4.325815 13.212289 0.000000 0.000000 0.000000 -1.547534 -0.276130 3.494390 1.359938 -0.298271 -5.318573 -1.351830 -7.593092 13.099713 0.000000 0.000000 0.000000 -1.617424 -0.008771 1.043530 3.539166 -0.143601 -25.439819 -1.251206 -1.442485 33.093456 1.910807 -0.479526 -16.021698 0.000000 0.000000 0.000000 0.122927 14.188828 -5.222814 -13.524418 -12.910968 -1.664197 8.288362 6.535138 0.304018 0.000000 0.000000 0.000000 -10.428937 -9.624913 -2.362241 22.172159 0.721707 -3.201745 -13.104605 -0.813122 0.401845 0.000000 0.000000 0.000000 
-0.001065 0.960424 0.006430 -0.701118 1.907065 1.319745 4.366149 0.066663 2.989830 -3.601447 0.387136 -6.453530 -0.565164 4.342851 13.194246 0.000000 0.000000 0.000000 -1.550250 -0.275456 3.488625 1.362460 -0.298379 -5.316574 -1.338116 -7.558800 13.066237 0.000000 0.000000 0.000000 -1.617930 -0.008861 1.048762 3.530812 -0.142338 -25.425673 -1.251656 -1.442462 33.071233 1.910072 -0.476498 -16.043184 0.000000 0.000000 0.000000 0.067700 14.188605 -5.231306 -13.531062 -12.884168 -1.665102 8.239376 6.564829 0.301692 0.000000 0.000000 0.000000 -10.372864 -9.625740 -2.367755 22.183734 0.701654 -3.205424 -13.085919 -0.834011 0.402986 0.000000 0.000000 0.000000 
-0.001211 0.960431 0.007240 -0.702946 1.923189 1.322730 4.359267 0.066987 2.994764 -3.602150 0.386989 -6.457709 -0.562283 4.344312 13.178946 0.000000 0.000000 0.000000 -1.546820 -0.275873 3.490142 1.362301 -0.298502 -5.318919 -1.338622 -7.556805 13.063379 0.000000 0.000000 0.000000 -1.616046 -0.009209 1.060649 3.524458 -0.140680 -25.425020 -1.253643 -1.453235 33.062787 1.912678 -0.477218 -16.058799 0.000000 0.000000 0.000000 -0.009468 14.197823 -5.247164 -13.559305 -12.865932 -1.667677 8.222489 6.579716 0.300973 0.000000 0.000000 0.000000 -10.304107 -9.633782 -2.376866 22.221939 0.683486 -3.213534 -13.099822 -0.859716 0.405656 0.000000 0.000000 0.000000 
-0.001344 0.960432 0.008033 -0.703268 1.925619 1.322251 4.355048 0.067362 2.998886 -3.607166 0.387198 -6.455545 -0.557713 4.343041 13.152640 0.000000 0.000000 0.000000 -1.547315 -0.275705 3.488373 1.369811 -0.298847 -5.314056 -1.333520 -7.543905 13.051033 0.000000 0.000000 0.000000 -1.612273 -0.009544 1.070154 3.516362 -0.139338 -25.414252 -1.250019 -1.458713 33.060504 1.909137 -0.471681 -16.100956 0.000000 0.000000 0.000000 -0.094538 14.203210 -5.263110 -13.619921 -12.840896 -1.672818 8.233118 6.568151 0.301285 0.000000 0.000000 0.000000 -10.232046 -9.642063 -2.386061 22.275904 0.671503 -3.223501 -13.116858 -0.858177 0.406088 0.000000 0.000000 0.000000 
-0.001468 0.960411 0.008818 -0.703579 1.939158 1.318295 4.347693 0.068053 3.008474 -3.607347 0.387065 -6.462066 -0.559775 4.334923 13.133221 0.000000 0.000000 0.000000 -1.544113 -0.276850 3.498032 1.370214 -0.299281 -5.326164 -1.330988 -7.536828 13.048813 0.000000 0.000000 0.000000 -1.605899 -0.010029 1.082392 3.507871 -0.137662 -25.405400 -1.252044 -1.472671 33.058804 1.908777 -0.471409 -16.113798 0.000000 0.000000 0.000000 -0.176546 14.210454 -5.279191 -13.672083 -12.837391 -1.676386 8.240989 6.567172 0.301807 0.000000 0.000000 0.000000 -10.160324 -9.646989 -2.394214 22.325792 0.672127 -3.231277 -13.127231 -0.874745 0.407823 0.000000 0.000000 0.000000 
-0.001587 0.960389 0.009608 -0.703870 1.952578 1.314089 4.343058 0.068165 3.008989 -3.612910 0.387185 -6.456271 -0.556756 4.336090 13.117263 0.000000 0.000000 0.000000 -1.540347 -0.277601 3.503001 1.364937 -0.299140 -5.330871 -1.330696 -7.536457 13.056738 0.000000 0.000000 0.000000 -1.601376 -0.010592 1.098888 3.506376 -0.137616 -25.396120 -1.256188 -1.483851 33.056479 1.907205 -0.470004 -16.123824 0.000000 0.000000 0.000000 -0.238175 14.209194 -5.288664 -13.742105 -12.827569 -1.681301 8.255098 6.542219 0.301954 0.000000 0.000000 0.000000 -10.100069 -9.653401 -2.401901 22.377895 0.681894 -3.238067 -13.134794 -0.874988 0.408193 0.000000 0.000000 0.000000 
-0.001706 0.960356 0.010402 -0.704697 1.957443 1.310085 4.336858 0.068559 3.011504 -3.616318 0.387297 -6.453424 -0.548083 4.346779 13.105847 0.000000 0.000000 0.000000 -1.532071 -0.278167 3.503894 1.354900 -0.298479 -5.329272 -1.327523 -7.531129 13.061720 0.000000 0.000000 0.000000 -1.605450 -0.010820 1.109785 3.504816 -0.137617 -25.387826 -1.257164 -1.490191 33.057168 1.907383 -0.471866 -16.110281 0.000000 0.000000 0.000000 -0.287990 14.208635 -5.296583 -13.791210 -12.818656 -1.684986 8.240946 6.522667 0.300431 0.000000 0.000000 0.000000 -10.053051 -9.655247 -2.406933 22.431601 0.681627 -3.246395 -13.122599 -0.857843 0.406430 0.000000 0.000000 0.000000 
